<?xml version="1.0" encoding="utf-8"?>
<!-- Generator: Adobe Illustrator 17.1.0, SVG Export Plug-In . SVG Version: 6.00 Build 0)  -->
<!DOCTYPE svg PUBLIC "-//W3C//DTD SVG 1.1//EN" "http://www.w3.org/Graphics/SVG/1.1/DTD/svg11.dtd">
<svg version="1.1" id="Calque_1" xmlns="http://www.w3.org/2000/svg" xmlns:xlink="http://www.w3.org/1999/xlink" x="0px" y="0px"
	 viewBox="0 0 841.89 595.28" enable-background="new 0 0 841.89 595.28" xml:space="preserve">
<g>
	<path fill="#4F8281" d="M422.373,58.589v30.229c113.925,1.64,205.774,94.502,205.774,208.817
		c0,115.34-93.501,208.841-208.841,208.841s-208.841-93.501-208.841-208.841c0-0.155,0.003-0.309,0.003-0.463h-29.322
		c0,0.154-0.001,0.309-0.001,0.463c0,132.027,107.029,239.056,239.056,239.056s239.056-107.029,239.056-239.056
		C659.257,166.332,553.4,59.755,422.373,58.589z"/>
	<path fill="#4F8281" d="M422.373,114.376v23.179c87.106,1.525,157.25,72.61,157.25,160.08c0,88.425-71.683,160.108-160.108,160.108
		c-52.25,0-98.653-25.03-127.876-63.753h-27.363c32.305,52.167,90.056,86.918,155.926,86.918
		c101.219,0,183.273-82.054,183.273-183.272C603.474,197.141,522.591,115.54,422.373,114.376z"/>
	<path fill="#4F8281" d="M422.373,158.342v17.551c66.686,0.348,120.638,54.512,120.638,121.279S489.058,418.102,422.373,418.45
		v17.551c76.616-0.068,138.705-62.198,138.705-138.83S498.989,158.41,422.373,158.342z"/>
	<path fill="#4F8281" d="M506.19,297.171h12.537c-0.17-47.871-35.965-89.246-84.719-95.177c-3.91-0.476-7.793-0.708-11.635-0.713
		v12.135c3.24,0.018,6.512,0.222,9.806,0.622C474.765,219.22,506.034,255.357,506.19,297.171z"/>
</g>
</svg>
